<svg width="414" height="736" viewBox="0 0 414 736" fill="none" xmlns="http://www.w3.org/2000/svg">
<rect width="414" height="736" fill="white"/>
<rect width="414" height="736" fill="#F9FAF9"/>
<circle cx="48.7419" cy="64.9355" r="6.06452" fill="#A6E6EA"/>
<circle cx="58.5968" cy="55.0806" r="9.85484" fill="#9FF9AE"/>
<circle cx="46.4677" cy="39.9194" r="15.9194" fill="#F99494"/>
<g filter="url(#filter0_d_15_2)">
<path d="M79.2159 55.5795H74.9659C74.8447 54.8826 74.6212 54.2652 74.2955 53.7273C73.9697 53.1818 73.5644 52.7197 73.0795 52.3409C72.5947 51.9621 72.0417 51.678 71.4205 51.4886C70.8068 51.2917 70.1439 51.1932 69.4318 51.1932C68.1667 51.1932 67.0455 51.5114 66.0682 52.1477C65.0909 52.7765 64.3258 53.7008 63.7727 54.9205C63.2197 56.1326 62.9432 57.6136 62.9432 59.3636C62.9432 61.1439 63.2197 62.6439 63.7727 63.8636C64.3333 65.0758 65.0985 65.9924 66.0682 66.6136C67.0455 67.2273 68.1629 67.5341 69.4205 67.5341C70.1174 67.5341 70.7689 67.4432 71.375 67.2614C71.9886 67.072 72.5379 66.7955 73.0227 66.4318C73.5152 66.0682 73.928 65.6212 74.2614 65.0909C74.6023 64.5606 74.8371 63.9545 74.9659 63.2727L79.2159 63.2955C79.0568 64.4015 78.7121 65.4394 78.1818 66.4091C77.6591 67.3788 76.9735 68.2348 76.125 68.9773C75.2765 69.7121 74.2841 70.2879 73.1477 70.7045C72.0114 71.1136 70.75 71.3182 69.3636 71.3182C67.3182 71.3182 65.4924 70.8447 63.8864 69.8977C62.2803 68.9508 61.0152 67.5833 60.0909 65.7955C59.1667 64.0076 58.7045 61.8636 58.7045 59.3636C58.7045 56.8561 59.1705 54.7121 60.1023 52.9318C61.0341 51.1439 62.303 49.7765 63.9091 48.8295C65.5152 47.8826 67.3333 47.4091 69.3636 47.4091C70.6591 47.4091 71.8636 47.5909 72.9773 47.9545C74.0909 48.3182 75.0833 48.8523 75.9545 49.5568C76.8258 50.2538 77.5417 51.1098 78.1023 52.125C78.6705 53.1326 79.0417 54.2841 79.2159 55.5795ZM87.9176 71.3523C86.8116 71.3523 85.8153 71.1553 84.929 70.7614C84.0502 70.3598 83.3532 69.7689 82.8381 68.9886C82.3305 68.2083 82.0767 67.2462 82.0767 66.1023C82.0767 65.1174 82.2585 64.303 82.6222 63.6591C82.9858 63.0152 83.482 62.5 84.1108 62.1136C84.7396 61.7273 85.4479 61.4356 86.2358 61.2386C87.0313 61.0341 87.8532 60.8864 88.7017 60.7955C89.7244 60.6894 90.554 60.5947 91.1903 60.5114C91.8267 60.4205 92.2888 60.2841 92.5767 60.1023C92.8722 59.9129 93.0199 59.6212 93.0199 59.2273V59.1591C93.0199 58.303 92.7661 57.6402 92.2585 57.1705C91.7509 56.7008 91.0199 56.4659 90.0653 56.4659C89.0578 56.4659 88.2585 56.6856 87.6676 57.125C87.0843 57.5644 86.6903 58.0833 86.4858 58.6818L82.6449 58.1364C82.9479 57.0758 83.4479 56.1894 84.1449 55.4773C84.8419 54.7576 85.6941 54.2197 86.7017 53.8636C87.7093 53.5 88.8229 53.3182 90.0426 53.3182C90.8835 53.3182 91.7206 53.4167 92.554 53.6136C93.3873 53.8106 94.1487 54.1364 94.8381 54.5909C95.5275 55.0379 96.0805 55.6477 96.4972 56.4205C96.9214 57.1932 97.1335 58.1591 97.1335 59.3182V71H93.179V68.6023H93.0426C92.7926 69.0871 92.4403 69.5417 91.9858 69.9659C91.5388 70.3826 90.9744 70.7197 90.2926 70.9773C89.6184 71.2273 88.8267 71.3523 87.9176 71.3523ZM88.9858 68.3295C89.8116 68.3295 90.5275 68.1667 91.1335 67.8409C91.7396 67.5076 92.2055 67.0682 92.5312 66.5227C92.8646 65.9773 93.0312 65.3826 93.0312 64.7386V62.6818C92.9025 62.7879 92.6828 62.8864 92.3722 62.9773C92.0691 63.0682 91.7282 63.1477 91.3494 63.2159C90.9706 63.2841 90.5956 63.3447 90.2244 63.3977C89.8532 63.4508 89.5313 63.4962 89.2585 63.5341C88.6449 63.6174 88.0956 63.7538 87.6108 63.9432C87.1259 64.1326 86.7434 64.3977 86.4631 64.7386C86.1828 65.072 86.0426 65.5038 86.0426 66.0341C86.0426 66.7917 86.3191 67.3636 86.8722 67.75C87.4252 68.1364 88.1297 68.3295 88.9858 68.3295ZM107.747 71.3068C106.376 71.3068 105.149 70.9545 104.065 70.25C102.982 69.5455 102.126 68.5227 101.497 67.1818C100.868 65.8409 100.554 64.2121 100.554 62.2955C100.554 60.3561 100.872 58.7197 101.509 57.3864C102.152 56.0455 103.02 55.0341 104.111 54.3523C105.202 53.6629 106.418 53.3182 107.759 53.3182C108.781 53.3182 109.622 53.4924 110.281 53.8409C110.94 54.1818 111.463 54.5947 111.849 55.0795C112.236 55.5568 112.535 56.0076 112.747 56.4318H112.918V47.7273H117.043V71H112.997V68.25H112.747C112.535 68.6742 112.228 69.125 111.827 69.6023C111.425 70.072 110.895 70.4735 110.236 70.8068C109.577 71.1402 108.747 71.3068 107.747 71.3068ZM108.895 67.9318C109.766 67.9318 110.509 67.697 111.122 67.2273C111.736 66.75 112.202 66.0871 112.52 65.2386C112.838 64.3902 112.997 63.4015 112.997 62.2727C112.997 61.1439 112.838 60.1629 112.52 59.3295C112.209 58.4962 111.747 57.8485 111.134 57.3864C110.527 56.9242 109.781 56.6932 108.895 56.6932C107.978 56.6932 107.213 56.9318 106.599 57.4091C105.986 57.8864 105.524 58.5455 105.213 59.3864C104.902 60.2273 104.747 61.1894 104.747 62.2727C104.747 63.3636 104.902 64.3371 105.213 65.1932C105.531 66.0417 105.997 66.7121 106.611 67.2045C107.232 67.6894 107.993 67.9318 108.895 67.9318ZM126.449 71.3523C125.343 71.3523 124.347 71.1553 123.46 70.7614C122.581 70.3598 121.884 69.7689 121.369 68.9886C120.862 68.2083 120.608 67.2462 120.608 66.1023C120.608 65.1174 120.79 64.303 121.153 63.6591C121.517 63.0152 122.013 62.5 122.642 62.1136C123.271 61.7273 123.979 61.4356 124.767 61.2386C125.563 61.0341 126.384 60.8864 127.233 60.7955C128.256 60.6894 129.085 60.5947 129.722 60.5114C130.358 60.4205 130.82 60.2841 131.108 60.1023C131.403 59.9129 131.551 59.6212 131.551 59.2273V59.1591C131.551 58.303 131.297 57.6402 130.79 57.1705C130.282 56.7008 129.551 56.4659 128.597 56.4659C127.589 56.4659 126.79 56.6856 126.199 57.125C125.616 57.5644 125.222 58.0833 125.017 58.6818L121.176 58.1364C121.479 57.0758 121.979 56.1894 122.676 55.4773C123.373 54.7576 124.225 54.2197 125.233 53.8636C126.241 53.5 127.354 53.3182 128.574 53.3182C129.415 53.3182 130.252 53.4167 131.085 53.6136C131.919 53.8106 132.68 54.1364 133.369 54.5909C134.059 55.0379 134.612 55.6477 135.028 56.4205C135.453 57.1932 135.665 58.1591 135.665 59.3182V71H131.71V68.6023H131.574C131.324 69.0871 130.972 69.5417 130.517 69.9659C130.07 70.3826 129.506 70.7197 128.824 70.9773C128.15 71.2273 127.358 71.3523 126.449 71.3523ZM127.517 68.3295C128.343 68.3295 129.059 68.1667 129.665 67.8409C130.271 67.5076 130.737 67.0682 131.062 66.5227C131.396 65.9773 131.562 65.3826 131.562 64.7386V62.6818C131.434 62.7879 131.214 62.8864 130.903 62.9773C130.6 63.0682 130.259 63.1477 129.881 63.2159C129.502 63.2841 129.127 63.3447 128.756 63.3977C128.384 63.4508 128.063 63.4962 127.79 63.5341C127.176 63.6174 126.627 63.7538 126.142 63.9432C125.657 64.1326 125.275 64.3977 124.994 64.7386C124.714 65.072 124.574 65.5038 124.574 66.0341C124.574 66.7917 124.85 67.3636 125.403 67.75C125.956 68.1364 126.661 68.3295 127.517 68.3295ZM153.597 58.1591L149.847 58.5682C149.741 58.1894 149.555 57.8333 149.29 57.5C149.032 57.1667 148.684 56.8977 148.244 56.6932C147.805 56.4886 147.267 56.3864 146.631 56.3864C145.775 56.3864 145.055 56.572 144.472 56.9432C143.896 57.3144 143.612 57.7955 143.619 58.3864C143.612 58.8939 143.797 59.3068 144.176 59.625C144.563 59.9432 145.199 60.2045 146.085 60.4091L149.062 61.0455C150.714 61.4015 151.941 61.9659 152.744 62.7386C153.555 63.5114 153.964 64.5227 153.972 65.7727C153.964 66.8712 153.642 67.8409 153.006 68.6818C152.377 69.5152 151.502 70.1667 150.381 70.6364C149.259 71.1061 147.972 71.3409 146.517 71.3409C144.381 71.3409 142.661 70.8939 141.358 70C140.055 69.0985 139.278 67.8447 139.028 66.2386L143.04 65.8523C143.222 66.6402 143.608 67.2348 144.199 67.6364C144.79 68.0379 145.559 68.2386 146.506 68.2386C147.483 68.2386 148.267 68.0379 148.858 67.6364C149.456 67.2348 149.756 66.7386 149.756 66.1477C149.756 65.6477 149.563 65.2348 149.176 64.9091C148.797 64.5833 148.206 64.3333 147.403 64.1591L144.426 63.5341C142.752 63.1856 141.513 62.5985 140.71 61.7727C139.907 60.9394 139.509 59.8864 139.517 58.6136C139.509 57.5379 139.801 56.6061 140.392 55.8182C140.991 55.0227 141.82 54.4091 142.881 53.9773C143.949 53.5379 145.18 53.3182 146.574 53.3182C148.619 53.3182 150.229 53.7538 151.403 54.625C152.585 55.4962 153.316 56.6742 153.597 58.1591ZM166.08 53.5455V56.7273H156.045V53.5455H166.08ZM158.523 49.3636H162.636V65.75C162.636 66.303 162.72 66.7273 162.886 67.0227C163.061 67.3106 163.288 67.5076 163.568 67.6136C163.848 67.7197 164.159 67.7727 164.5 67.7727C164.758 67.7727 164.992 67.7538 165.205 67.7159C165.424 67.678 165.591 67.6439 165.705 67.6136L166.398 70.8295C166.178 70.9053 165.864 70.9886 165.455 71.0795C165.053 71.1705 164.561 71.2235 163.977 71.2386C162.947 71.2689 162.019 71.1136 161.193 70.7727C160.367 70.4242 159.712 69.8864 159.227 69.1591C158.75 68.4318 158.515 67.5227 158.523 66.4318V49.3636ZM169.52 71V53.5455H173.509V56.4545H173.69C174.009 55.447 174.554 54.6705 175.327 54.125C176.107 53.572 176.997 53.2955 177.997 53.2955C178.224 53.2955 178.478 53.3068 178.759 53.3295C179.046 53.3447 179.285 53.3712 179.474 53.4091V57.1932C179.3 57.1326 179.024 57.0795 178.645 57.0341C178.274 56.9811 177.914 56.9545 177.565 56.9545C176.815 56.9545 176.141 57.1174 175.543 57.4432C174.952 57.7614 174.486 58.2045 174.145 58.7727C173.804 59.3409 173.634 59.9962 173.634 60.7386V71H169.52ZM189.102 71.3409C187.398 71.3409 185.92 70.9659 184.67 70.2159C183.42 69.4659 182.451 68.4167 181.761 67.0682C181.08 65.7197 180.739 64.1439 180.739 62.3409C180.739 60.5379 181.08 58.9583 181.761 57.6023C182.451 56.2462 183.42 55.1932 184.67 54.4432C185.92 53.6932 187.398 53.3182 189.102 53.3182C190.807 53.3182 192.284 53.6932 193.534 54.4432C194.784 55.1932 195.75 56.2462 196.432 57.6023C197.121 58.9583 197.466 60.5379 197.466 62.3409C197.466 64.1439 197.121 65.7197 196.432 67.0682C195.75 68.4167 194.784 69.4659 193.534 70.2159C192.284 70.9659 190.807 71.3409 189.102 71.3409ZM189.125 68.0455C190.049 68.0455 190.822 67.7917 191.443 67.2841C192.064 66.7689 192.527 66.0795 192.83 65.2159C193.14 64.3523 193.295 63.3902 193.295 62.3295C193.295 61.2614 193.14 60.2955 192.83 59.4318C192.527 58.5606 192.064 57.8674 191.443 57.3523C190.822 56.8371 190.049 56.5795 189.125 56.5795C188.178 56.5795 187.39 56.8371 186.761 57.3523C186.14 57.8674 185.674 58.5606 185.364 59.4318C185.061 60.2955 184.909 61.2614 184.909 62.3295C184.909 63.3902 185.061 64.3523 185.364 65.2159C185.674 66.0795 186.14 66.7689 186.761 67.2841C187.39 67.7917 188.178 68.0455 189.125 68.0455Z" fill="#464237"/>
</g>
<line x1="360" y1="54.5" x2="379" y2="54.5" stroke="black"/>
<line x1="363" y1="61.5" x2="379" y2="61.5" stroke="black"/>
<line x1="360" y1="68.5" x2="379" y2="68.5" stroke="black"/>
<rect x="35" y="85" width="344" height="605" fill="#FEFEFE"/>
<rect x="56" y="127" width="302" height="38" rx="2" fill="white" stroke="#E2A507" stroke-width="2"/>
<path d="M65.7102 107.364V119H63.8352L58.3523 111.074H58.2557V119H56.1477V107.364H58.0341L63.5114 115.295H63.6136V107.364H65.7102ZM71.723 119.17C70.8707 119.17 70.1321 118.983 69.5071 118.608C68.8821 118.233 68.3973 117.708 68.0526 117.034C67.7116 116.36 67.5412 115.572 67.5412 114.67C67.5412 113.769 67.7116 112.979 68.0526 112.301C68.3973 111.623 68.8821 111.097 69.5071 110.722C70.1321 110.347 70.8707 110.159 71.723 110.159C72.5753 110.159 73.3139 110.347 73.9389 110.722C74.5639 111.097 75.0469 111.623 75.3878 112.301C75.7325 112.979 75.9048 113.769 75.9048 114.67C75.9048 115.572 75.7325 116.36 75.3878 117.034C75.0469 117.708 74.5639 118.233 73.9389 118.608C73.3139 118.983 72.5753 119.17 71.723 119.17ZM71.7344 117.523C72.1965 117.523 72.5829 117.396 72.8935 117.142C73.2041 116.884 73.4351 116.54 73.5866 116.108C73.742 115.676 73.8196 115.195 73.8196 114.665C73.8196 114.131 73.742 113.648 73.5866 113.216C73.4351 112.78 73.2041 112.434 72.8935 112.176C72.5829 111.919 72.1965 111.79 71.7344 111.79C71.2609 111.79 70.867 111.919 70.5526 112.176C70.242 112.434 70.009 112.78 69.8537 113.216C69.7022 113.648 69.6264 114.131 69.6264 114.665C69.6264 115.195 69.7022 115.676 69.8537 116.108C70.009 116.54 70.242 116.884 70.5526 117.142C70.867 117.396 71.2609 117.523 71.7344 117.523ZM77.6506 119V110.273H79.6165V111.756H79.7188C79.9006 111.256 80.2017 110.866 80.6222 110.585C81.0426 110.301 81.5445 110.159 82.1278 110.159C82.7188 110.159 83.2169 110.303 83.6222 110.591C84.0313 110.875 84.3191 111.263 84.4858 111.756H84.5767C84.7699 111.271 85.0956 110.884 85.554 110.597C86.0161 110.305 86.5634 110.159 87.196 110.159C87.9991 110.159 88.6544 110.413 89.1619 110.92C89.6695 111.428 89.9233 112.169 89.9233 113.142V119H87.8608V113.46C87.8608 112.919 87.7169 112.523 87.429 112.273C87.1411 112.019 86.7888 111.892 86.3722 111.892C85.8759 111.892 85.4877 112.047 85.2074 112.358C84.9309 112.665 84.7926 113.064 84.7926 113.557V119H82.7756V113.375C82.7756 112.924 82.6392 112.564 82.3665 112.295C82.0975 112.027 81.7453 111.892 81.3097 111.892C81.0142 111.892 80.7453 111.968 80.5028 112.119C80.2604 112.267 80.0672 112.477 79.9233 112.75C79.7794 113.019 79.7074 113.333 79.7074 113.693V119H77.6506ZM95.8736 119.17C94.9986 119.17 94.2429 118.989 93.6065 118.625C92.974 118.258 92.4872 117.739 92.1463 117.068C91.8054 116.394 91.6349 115.6 91.6349 114.688C91.6349 113.79 91.8054 113.002 92.1463 112.324C92.491 111.642 92.9721 111.112 93.5895 110.733C94.2069 110.35 94.9323 110.159 95.7656 110.159C96.3035 110.159 96.8111 110.246 97.2884 110.42C97.7694 110.591 98.1937 110.856 98.5611 111.216C98.9323 111.576 99.224 112.034 99.4361 112.591C99.6482 113.144 99.7543 113.803 99.7543 114.568V115.199H92.6009V113.812H97.7827C97.7789 113.419 97.6937 113.068 97.527 112.761C97.3603 112.451 97.1274 112.206 96.8281 112.028C96.5327 111.85 96.188 111.761 95.794 111.761C95.3736 111.761 95.0043 111.864 94.6861 112.068C94.3679 112.269 94.1198 112.534 93.9418 112.864C93.7675 113.189 93.6785 113.547 93.6747 113.938V115.148C93.6747 115.655 93.7675 116.091 93.9531 116.455C94.1387 116.814 94.3982 117.091 94.7315 117.284C95.0649 117.473 95.455 117.568 95.902 117.568C96.2012 117.568 96.4721 117.527 96.7145 117.443C96.9569 117.356 97.1671 117.229 97.3452 117.062C97.5232 116.896 97.6577 116.689 97.7486 116.443L99.669 116.659C99.5478 117.167 99.3168 117.61 98.9759 117.989C98.6387 118.364 98.2069 118.655 97.6804 118.864C97.1539 119.068 96.5516 119.17 95.8736 119.17Z" fill="black"/>
<rect x="56" y="209" width="302" height="38" rx="2" fill="#F9F8F6" stroke="#CBC6BE" stroke-width="2"/>
<path d="M56.1477 201V189.364H63.7159V191.131H58.2557V194.29H63.3239V196.057H58.2557V199.233H63.7614V201H56.1477ZM71.0653 195.307V197H65.8267V195.307H71.0653ZM73.2287 201V192.273H75.1946V193.756H75.2969C75.4787 193.256 75.7798 192.866 76.2003 192.585C76.6207 192.301 77.1226 192.159 77.706 192.159C78.2969 192.159 78.795 192.303 79.2003 192.591C79.6094 192.875 79.8973 193.263 80.0639 193.756H80.1548C80.348 193.271 80.6738 192.884 81.1321 192.597C81.5942 192.305 82.1416 192.159 82.7741 192.159C83.5772 192.159 84.2325 192.413 84.7401 192.92C85.2476 193.428 85.5014 194.169 85.5014 195.142V201H83.4389V195.46C83.4389 194.919 83.295 194.523 83.0071 194.273C82.7192 194.019 82.367 193.892 81.9503 193.892C81.4541 193.892 81.0658 194.047 80.7855 194.358C80.509 194.665 80.3707 195.064 80.3707 195.557V201H78.3537V195.375C78.3537 194.924 78.2173 194.564 77.9446 194.295C77.6757 194.027 77.3234 193.892 76.8878 193.892C76.5923 193.892 76.3234 193.968 76.081 194.119C75.8385 194.267 75.6454 194.477 75.5014 194.75C75.3575 195.019 75.2855 195.333 75.2855 195.693V201H73.2287ZM90.0994 201.176C89.5464 201.176 89.0483 201.078 88.6051 200.881C88.1657 200.68 87.8172 200.384 87.5597 199.994C87.3059 199.604 87.179 199.123 87.179 198.551C87.179 198.059 87.2699 197.652 87.4517 197.33C87.6335 197.008 87.8816 196.75 88.196 196.557C88.5104 196.364 88.8646 196.218 89.2585 196.119C89.6563 196.017 90.0672 195.943 90.4915 195.898C91.0028 195.845 91.4176 195.797 91.7358 195.756C92.054 195.71 92.285 195.642 92.429 195.551C92.5767 195.456 92.6506 195.311 92.6506 195.114V195.08C92.6506 194.652 92.5237 194.32 92.2699 194.085C92.0161 193.85 91.6506 193.733 91.1733 193.733C90.6695 193.733 90.2699 193.843 89.9744 194.062C89.6828 194.282 89.4858 194.542 89.3835 194.841L87.4631 194.568C87.6146 194.038 87.8646 193.595 88.2131 193.239C88.5616 192.879 88.9877 192.61 89.4915 192.432C89.9953 192.25 90.5521 192.159 91.1619 192.159C91.5824 192.159 92.0009 192.208 92.4176 192.307C92.8343 192.405 93.215 192.568 93.5597 192.795C93.9044 193.019 94.1809 193.324 94.3892 193.71C94.6013 194.097 94.7074 194.58 94.7074 195.159V201H92.7301V199.801H92.6619C92.5369 200.044 92.3608 200.271 92.1335 200.483C91.91 200.691 91.6278 200.86 91.2869 200.989C90.9498 201.114 90.554 201.176 90.0994 201.176ZM90.6335 199.665C91.0464 199.665 91.4044 199.583 91.7074 199.42C92.0104 199.254 92.2434 199.034 92.4062 198.761C92.5729 198.489 92.6562 198.191 92.6562 197.869V196.841C92.5919 196.894 92.482 196.943 92.3267 196.989C92.1752 197.034 92.0047 197.074 91.8153 197.108C91.6259 197.142 91.4384 197.172 91.2528 197.199C91.0672 197.225 90.9063 197.248 90.7699 197.267C90.4631 197.309 90.1884 197.377 89.946 197.472C89.7036 197.566 89.5123 197.699 89.3722 197.869C89.232 198.036 89.1619 198.252 89.1619 198.517C89.1619 198.896 89.3002 199.182 89.5767 199.375C89.8532 199.568 90.2055 199.665 90.6335 199.665ZM96.7756 201V192.273H98.8324V201H96.7756ZM97.8097 191.034C97.4839 191.034 97.2036 190.926 96.9688 190.71C96.7339 190.491 96.6165 190.227 96.6165 189.92C96.6165 189.61 96.7339 189.347 96.9688 189.131C97.2036 188.911 97.4839 188.801 97.8097 188.801C98.1392 188.801 98.4195 188.911 98.6506 189.131C98.8854 189.347 99.0028 189.61 99.0028 189.92C99.0028 190.227 98.8854 190.491 98.6506 190.71C98.4195 190.926 98.1392 191.034 97.8097 191.034ZM103.004 189.364V201H100.947V189.364H103.004Z" fill="black"/>
<rect x="56" y="291" width="302" height="38" rx="2" fill="#F9F8F6" stroke="#CBC6BE" stroke-width="2"/>
<path d="M62.4716 274.562C62.4186 274.066 62.1951 273.68 61.8011 273.403C61.411 273.127 60.9034 272.989 60.2784 272.989C59.839 272.989 59.4621 273.055 59.1477 273.188C58.8333 273.32 58.5928 273.5 58.4261 273.727C58.2595 273.955 58.1742 274.214 58.1705 274.506C58.1705 274.748 58.2254 274.958 58.3352 275.136C58.4489 275.314 58.6023 275.466 58.7955 275.591C58.9886 275.712 59.2027 275.814 59.4375 275.898C59.6723 275.981 59.9091 276.051 60.1477 276.108L61.2386 276.381C61.678 276.483 62.1004 276.621 62.5057 276.795C62.9148 276.97 63.2803 277.189 63.6023 277.455C63.928 277.72 64.1856 278.04 64.375 278.415C64.5644 278.79 64.6591 279.229 64.6591 279.733C64.6591 280.415 64.4848 281.015 64.1364 281.534C63.7879 282.049 63.2841 282.453 62.625 282.744C61.9697 283.032 61.1761 283.176 60.2443 283.176C59.339 283.176 58.553 283.036 57.8864 282.756C57.2235 282.475 56.7045 282.066 56.3295 281.528C55.9583 280.991 55.7576 280.335 55.7273 279.562H57.8011C57.8314 279.968 57.9564 280.305 58.1761 280.574C58.3958 280.843 58.6818 281.044 59.0341 281.176C59.3902 281.309 59.7879 281.375 60.2273 281.375C60.6856 281.375 61.0871 281.307 61.4318 281.17C61.7803 281.03 62.053 280.837 62.25 280.591C62.447 280.341 62.5473 280.049 62.5511 279.716C62.5473 279.413 62.4583 279.163 62.2841 278.966C62.1098 278.765 61.8655 278.598 61.5511 278.466C61.2405 278.33 60.8769 278.208 60.4602 278.102L59.1364 277.761C58.178 277.515 57.4205 277.142 56.8636 276.642C56.3106 276.138 56.0341 275.47 56.0341 274.636C56.0341 273.951 56.2197 273.35 56.5909 272.835C56.9659 272.32 57.4754 271.92 58.1193 271.636C58.7633 271.348 59.4924 271.205 60.3068 271.205C61.1326 271.205 61.8561 271.348 62.4773 271.636C63.1023 271.92 63.5928 272.316 63.9489 272.824C64.3049 273.328 64.4886 273.907 64.5 274.562H62.4716ZM70.3111 283.17C69.4361 283.17 68.6804 282.989 68.044 282.625C67.4115 282.258 66.9247 281.739 66.5838 281.068C66.2429 280.394 66.0724 279.6 66.0724 278.688C66.0724 277.79 66.2429 277.002 66.5838 276.324C66.9285 275.642 67.4096 275.112 68.027 274.733C68.6444 274.35 69.3698 274.159 70.2031 274.159C70.741 274.159 71.2486 274.246 71.7259 274.42C72.2069 274.591 72.6312 274.856 72.9986 275.216C73.3698 275.576 73.6615 276.034 73.8736 276.591C74.0857 277.144 74.1918 277.803 74.1918 278.568V279.199H67.0384V277.812H72.2202C72.2164 277.419 72.1312 277.068 71.9645 276.761C71.7978 276.451 71.5649 276.206 71.2656 276.028C70.9702 275.85 70.6255 275.761 70.2315 275.761C69.8111 275.761 69.4418 275.864 69.1236 276.068C68.8054 276.269 68.5573 276.534 68.3793 276.864C68.205 277.189 68.116 277.547 68.1122 277.938V279.148C68.1122 279.655 68.205 280.091 68.3906 280.455C68.5762 280.814 68.8357 281.091 69.169 281.284C69.5024 281.473 69.8925 281.568 70.3395 281.568C70.6387 281.568 70.9096 281.527 71.152 281.443C71.3944 281.356 71.6046 281.229 71.7827 281.062C71.9607 280.896 72.0952 280.689 72.1861 280.443L74.1065 280.659C73.9853 281.167 73.7543 281.61 73.4134 281.989C73.0762 282.364 72.6444 282.655 72.1179 282.864C71.5914 283.068 70.9891 283.17 70.3111 283.17ZM77.9886 277.886V283H75.9318V274.273H77.8977V275.756H78C78.2008 275.267 78.5208 274.879 78.9602 274.591C79.4034 274.303 79.9508 274.159 80.6023 274.159C81.2045 274.159 81.7292 274.288 82.1761 274.545C82.6269 274.803 82.9754 275.176 83.2216 275.665C83.4716 276.153 83.5947 276.746 83.5909 277.443V283H81.5341V277.761C81.5341 277.178 81.3826 276.722 81.0795 276.392C80.7803 276.062 80.3655 275.898 79.8352 275.898C79.4754 275.898 79.1553 275.977 78.875 276.136C78.5985 276.292 78.3807 276.517 78.2216 276.812C78.0663 277.108 77.9886 277.466 77.9886 277.886ZM87.7386 277.886V283H85.6818V271.364H87.6932V275.756H87.7955C88 275.263 88.3163 274.875 88.7443 274.591C89.1761 274.303 89.7254 274.159 90.392 274.159C90.9981 274.159 91.5265 274.286 91.9773 274.54C92.428 274.794 92.7765 275.165 93.0227 275.653C93.2727 276.142 93.3977 276.739 93.3977 277.443V283H91.3409V277.761C91.3409 277.174 91.1894 276.718 90.8864 276.392C90.5871 276.062 90.1667 275.898 89.625 275.898C89.2614 275.898 88.9356 275.977 88.6477 276.136C88.3636 276.292 88.1402 276.517 87.9773 276.812C87.8182 277.108 87.7386 277.466 87.7386 277.886ZM98.0057 283.176C97.4527 283.176 96.9545 283.078 96.5114 282.881C96.072 282.68 95.7235 282.384 95.4659 281.994C95.2121 281.604 95.0852 281.123 95.0852 280.551C95.0852 280.059 95.1761 279.652 95.358 279.33C95.5398 279.008 95.7879 278.75 96.1023 278.557C96.4167 278.364 96.7708 278.218 97.1648 278.119C97.5625 278.017 97.9735 277.943 98.3977 277.898C98.9091 277.845 99.3239 277.797 99.642 277.756C99.9602 277.71 100.191 277.642 100.335 277.551C100.483 277.456 100.557 277.311 100.557 277.114V277.08C100.557 276.652 100.43 276.32 100.176 276.085C99.9223 275.85 99.5568 275.733 99.0795 275.733C98.5758 275.733 98.1761 275.843 97.8807 276.062C97.589 276.282 97.392 276.542 97.2898 276.841L95.3693 276.568C95.5208 276.038 95.7708 275.595 96.1193 275.239C96.4678 274.879 96.8939 274.61 97.3977 274.432C97.9015 274.25 98.4583 274.159 99.0682 274.159C99.4886 274.159 99.9072 274.208 100.324 274.307C100.741 274.405 101.121 274.568 101.466 274.795C101.811 275.019 102.087 275.324 102.295 275.71C102.508 276.097 102.614 276.58 102.614 277.159V283H100.636V281.801H100.568C100.443 282.044 100.267 282.271 100.04 282.483C99.8163 282.691 99.5341 282.86 99.1932 282.989C98.8561 283.114 98.4602 283.176 98.0057 283.176ZM98.5398 281.665C98.9527 281.665 99.3106 281.583 99.6136 281.42C99.9167 281.254 100.15 281.034 100.312 280.761C100.479 280.489 100.562 280.191 100.562 279.869V278.841C100.498 278.894 100.388 278.943 100.233 278.989C100.081 279.034 99.911 279.074 99.7216 279.108C99.5322 279.142 99.3447 279.172 99.1591 279.199C98.9735 279.225 98.8125 279.248 98.6761 279.267C98.3693 279.309 98.0947 279.377 97.8523 279.472C97.6098 279.566 97.4186 279.699 97.2784 279.869C97.1383 280.036 97.0682 280.252 97.0682 280.517C97.0682 280.896 97.2064 281.182 97.483 281.375C97.7595 281.568 98.1117 281.665 98.5398 281.665Z" fill="black"/>
<rect x="58" y="373" width="145" height="38" rx="2" fill="#F9F8F6" stroke="#CBC6BE" stroke-width="2"/>
<rect x="220" y="373" width="138" height="38" rx="2" fill="#F9F8F6" stroke="#CBC6BE" stroke-width="2"/>
<path d="M66.108 357.29H63.983C63.9223 356.941 63.8106 356.633 63.6477 356.364C63.4848 356.091 63.2822 355.86 63.0398 355.67C62.7973 355.481 62.5208 355.339 62.2102 355.244C61.9034 355.146 61.572 355.097 61.2159 355.097C60.5833 355.097 60.0227 355.256 59.5341 355.574C59.0455 355.888 58.6629 356.35 58.3864 356.96C58.1098 357.566 57.9716 358.307 57.9716 359.182C57.9716 360.072 58.1098 360.822 58.3864 361.432C58.6667 362.038 59.0492 362.496 59.5341 362.807C60.0227 363.114 60.5814 363.267 61.2102 363.267C61.5587 363.267 61.8845 363.222 62.1875 363.131C62.4943 363.036 62.7689 362.898 63.0114 362.716C63.2576 362.534 63.464 362.311 63.6307 362.045C63.8011 361.78 63.9186 361.477 63.983 361.136L66.108 361.148C66.0284 361.701 65.8561 362.22 65.5909 362.705C65.3295 363.189 64.9867 363.617 64.5625 363.989C64.1383 364.356 63.642 364.644 63.0739 364.852C62.5057 365.057 61.875 365.159 61.1818 365.159C60.1591 365.159 59.2462 364.922 58.4432 364.449C57.6402 363.975 57.0076 363.292 56.5455 362.398C56.0833 361.504 55.8523 360.432 55.8523 359.182C55.8523 357.928 56.0852 356.856 56.5511 355.966C57.017 355.072 57.6515 354.388 58.4545 353.915C59.2576 353.441 60.1667 353.205 61.1818 353.205C61.8295 353.205 62.4318 353.295 62.9886 353.477C63.5455 353.659 64.0417 353.926 64.4773 354.278C64.9129 354.627 65.2708 355.055 65.5511 355.562C65.8352 356.066 66.0208 356.642 66.108 357.29ZM71.8111 365.17C70.9361 365.17 70.1804 364.989 69.544 364.625C68.9115 364.258 68.4247 363.739 68.0838 363.068C67.7429 362.394 67.5724 361.6 67.5724 360.688C67.5724 359.79 67.7429 359.002 68.0838 358.324C68.4285 357.642 68.9096 357.112 69.527 356.733C70.1444 356.35 70.8698 356.159 71.7031 356.159C72.241 356.159 72.7486 356.246 73.2259 356.42C73.7069 356.591 74.1312 356.856 74.4986 357.216C74.8698 357.576 75.1615 358.034 75.3736 358.591C75.5857 359.144 75.6918 359.803 75.6918 360.568V361.199H68.5384V359.812H73.7202C73.7164 359.419 73.6312 359.068 73.4645 358.761C73.2978 358.451 73.0649 358.206 72.7656 358.028C72.4702 357.85 72.1255 357.761 71.7315 357.761C71.3111 357.761 70.9418 357.864 70.6236 358.068C70.3054 358.269 70.0573 358.534 69.8793 358.864C69.705 359.189 69.616 359.547 69.6122 359.938V361.148C69.6122 361.655 69.705 362.091 69.8906 362.455C70.0762 362.814 70.3357 363.091 70.669 363.284C71.0024 363.473 71.3925 363.568 71.8395 363.568C72.1387 363.568 72.4096 363.527 72.652 363.443C72.8944 363.356 73.1046 363.229 73.2827 363.062C73.4607 362.896 73.5952 362.689 73.6861 362.443L75.6065 362.659C75.4853 363.167 75.2543 363.61 74.9134 363.989C74.5762 364.364 74.1444 364.655 73.6179 364.864C73.0914 365.068 72.4891 365.17 71.8111 365.17ZM77.4318 368.273V356.273H79.4545V357.716H79.5739C79.6799 357.504 79.8295 357.278 80.0227 357.04C80.2159 356.797 80.4773 356.591 80.8068 356.42C81.1364 356.246 81.5568 356.159 82.0682 356.159C82.7424 356.159 83.3504 356.331 83.892 356.676C84.4375 357.017 84.8693 357.523 85.1875 358.193C85.5095 358.86 85.6705 359.678 85.6705 360.648C85.6705 361.606 85.5133 362.42 85.1989 363.091C84.8845 363.761 84.4564 364.273 83.9148 364.625C83.3731 364.977 82.7595 365.153 82.0739 365.153C81.5739 365.153 81.1591 365.07 80.8295 364.903C80.5 364.737 80.2348 364.536 80.0341 364.301C79.8371 364.062 79.6837 363.837 79.5739 363.625H79.4886V368.273H77.4318ZM79.4489 360.636C79.4489 361.201 79.5284 361.695 79.6875 362.119C79.8504 362.544 80.0833 362.875 80.3864 363.114C80.6932 363.348 81.0644 363.466 81.5 363.466C81.9545 363.466 82.3352 363.345 82.642 363.102C82.9489 362.856 83.1799 362.521 83.3352 362.097C83.4943 361.669 83.5739 361.182 83.5739 360.636C83.5739 360.095 83.4962 359.614 83.3409 359.193C83.1856 358.773 82.9545 358.443 82.6477 358.205C82.3409 357.966 81.9583 357.847 81.5 357.847C81.0606 357.847 80.6875 357.962 80.3807 358.193C80.0739 358.424 79.8409 358.748 79.6818 359.165C79.5265 359.581 79.4489 360.072 79.4489 360.636Z" fill="black"/>
<path d="M229.71 353.364V365H227.835L222.352 357.074H222.256V365H220.148V353.364H222.034L227.511 361.295H227.614V353.364H229.71ZM237.479 361.33V356.273H239.536V365H237.541V363.449H237.45C237.253 363.937 236.929 364.337 236.479 364.648C236.032 364.958 235.481 365.114 234.825 365.114C234.253 365.114 233.748 364.987 233.308 364.733C232.873 364.475 232.532 364.102 232.286 363.614C232.039 363.121 231.916 362.527 231.916 361.83V356.273H233.973V361.511C233.973 362.064 234.125 362.504 234.428 362.83C234.731 363.155 235.128 363.318 235.621 363.318C235.924 363.318 236.217 363.244 236.501 363.097C236.786 362.949 237.018 362.729 237.2 362.438C237.386 362.142 237.479 361.773 237.479 361.33ZM241.651 365V356.273H243.616V357.756H243.719C243.901 357.256 244.202 356.866 244.622 356.585C245.043 356.301 245.545 356.159 246.128 356.159C246.719 356.159 247.217 356.303 247.622 356.591C248.031 356.875 248.319 357.263 248.486 357.756H248.577C248.77 357.271 249.096 356.884 249.554 356.597C250.016 356.305 250.563 356.159 251.196 356.159C251.999 356.159 252.654 356.413 253.162 356.92C253.67 357.428 253.923 358.169 253.923 359.142V365H251.861V359.46C251.861 358.919 251.717 358.523 251.429 358.273C251.141 358.019 250.789 357.892 250.372 357.892C249.876 357.892 249.488 358.047 249.207 358.358C248.931 358.665 248.793 359.064 248.793 359.557V365H246.776V359.375C246.776 358.924 246.639 358.564 246.366 358.295C246.098 358.027 245.745 357.892 245.31 357.892C245.014 357.892 244.745 357.968 244.503 358.119C244.26 358.267 244.067 358.477 243.923 358.75C243.779 359.019 243.707 359.333 243.707 359.693V365H241.651ZM259.874 365.17C258.999 365.17 258.243 364.989 257.607 364.625C256.974 364.258 256.487 363.739 256.146 363.068C255.805 362.394 255.635 361.6 255.635 360.688C255.635 359.79 255.805 359.002 256.146 358.324C256.491 357.642 256.972 357.112 257.589 356.733C258.207 356.35 258.932 356.159 259.766 356.159C260.304 356.159 260.811 356.246 261.288 356.42C261.769 356.591 262.194 356.856 262.561 357.216C262.932 357.576 263.224 358.034 263.436 358.591C263.648 359.144 263.754 359.803 263.754 360.568V361.199H256.601V359.812H261.783C261.779 359.419 261.694 359.068 261.527 358.761C261.36 358.451 261.127 358.206 260.828 358.028C260.533 357.85 260.188 357.761 259.794 357.761C259.374 357.761 259.004 357.864 258.686 358.068C258.368 358.269 258.12 358.534 257.942 358.864C257.768 359.189 257.679 359.547 257.675 359.938V361.148C257.675 361.655 257.768 362.091 257.953 362.455C258.139 362.814 258.398 363.091 258.732 363.284C259.065 363.473 259.455 363.568 259.902 363.568C260.201 363.568 260.472 363.527 260.714 363.443C260.957 363.356 261.167 363.229 261.345 363.062C261.523 362.896 261.658 362.689 261.749 362.443L263.669 362.659C263.548 363.167 263.317 363.61 262.976 363.989C262.639 364.364 262.207 364.655 261.68 364.864C261.154 365.068 260.552 365.17 259.874 365.17ZM265.494 365V356.273H267.489V357.727H267.58C267.739 357.223 268.011 356.835 268.398 356.562C268.788 356.286 269.233 356.148 269.733 356.148C269.847 356.148 269.973 356.153 270.114 356.165C270.258 356.172 270.377 356.186 270.472 356.205V358.097C270.384 358.066 270.246 358.04 270.057 358.017C269.871 357.991 269.691 357.977 269.517 357.977C269.142 357.977 268.805 358.059 268.506 358.222C268.21 358.381 267.977 358.602 267.807 358.886C267.636 359.17 267.551 359.498 267.551 359.869V365H265.494ZM275.286 365.17C274.433 365.17 273.695 364.983 273.07 364.608C272.445 364.233 271.96 363.708 271.615 363.034C271.274 362.36 271.104 361.572 271.104 360.67C271.104 359.769 271.274 358.979 271.615 358.301C271.96 357.623 272.445 357.097 273.07 356.722C273.695 356.347 274.433 356.159 275.286 356.159C276.138 356.159 276.876 356.347 277.501 356.722C278.126 357.097 278.609 357.623 278.95 358.301C279.295 358.979 279.467 359.769 279.467 360.67C279.467 361.572 279.295 362.36 278.95 363.034C278.609 363.708 278.126 364.233 277.501 364.608C276.876 364.983 276.138 365.17 275.286 365.17ZM275.297 363.523C275.759 363.523 276.145 363.396 276.456 363.142C276.767 362.884 276.998 362.54 277.149 362.108C277.304 361.676 277.382 361.195 277.382 360.665C277.382 360.131 277.304 359.648 277.149 359.216C276.998 358.78 276.767 358.434 276.456 358.176C276.145 357.919 275.759 357.79 275.297 357.79C274.823 357.79 274.429 357.919 274.115 358.176C273.804 358.434 273.571 358.78 273.416 359.216C273.265 359.648 273.189 360.131 273.189 360.665C273.189 361.195 273.265 361.676 273.416 362.108C273.571 362.54 273.804 362.884 274.115 363.142C274.429 363.396 274.823 363.523 275.297 363.523Z" fill="black"/>
<rect x="56" y="455" width="302" height="38" rx="2" fill="#F9F8F6" stroke="#CBC6BE" stroke-width="2"/>
<path d="M56.1477 447V435.364H60.5114C61.4053 435.364 62.1553 435.519 62.7614 435.83C63.3712 436.14 63.8314 436.576 64.142 437.136C64.4564 437.693 64.6136 438.343 64.6136 439.085C64.6136 439.831 64.4545 440.479 64.1364 441.028C63.822 441.574 63.358 441.996 62.7443 442.295C62.1307 442.591 61.3769 442.739 60.483 442.739H57.375V440.989H60.1989C60.7216 440.989 61.1496 440.917 61.483 440.773C61.8163 440.625 62.0625 440.411 62.2216 440.131C62.3845 439.847 62.4659 439.498 62.4659 439.085C62.4659 438.672 62.3845 438.32 62.2216 438.028C62.0587 437.733 61.8106 437.509 61.4773 437.358C61.1439 437.203 60.714 437.125 60.1875 437.125H58.2557V447H56.1477ZM62.1591 441.727L65.0398 447H62.6875L59.858 441.727H62.1591ZM72.0256 443.33V438.273H74.0824V447H72.0881V445.449H71.9972C71.8002 445.937 71.4763 446.337 71.0256 446.648C70.5786 446.958 70.0275 447.114 69.3722 447.114C68.8002 447.114 68.2945 446.987 67.8551 446.733C67.4195 446.475 67.0786 446.102 66.8324 445.614C66.5862 445.121 66.4631 444.527 66.4631 443.83V438.273H68.5199V443.511C68.5199 444.064 68.6714 444.504 68.9744 444.83C69.2775 445.155 69.6752 445.318 70.1676 445.318C70.4706 445.318 70.7642 445.244 71.0483 445.097C71.3324 444.949 71.5653 444.729 71.7472 444.438C71.9328 444.142 72.0256 443.773 72.0256 443.33ZM78.7088 447.176C78.1558 447.176 77.6577 447.078 77.2145 446.881C76.7751 446.68 76.4266 446.384 76.169 445.994C75.9152 445.604 75.7884 445.123 75.7884 444.551C75.7884 444.059 75.8793 443.652 76.0611 443.33C76.2429 443.008 76.491 442.75 76.8054 442.557C77.1198 442.364 77.474 442.218 77.8679 442.119C78.2656 442.017 78.6766 441.943 79.1009 441.898C79.6122 441.845 80.027 441.797 80.3452 441.756C80.6634 441.71 80.8944 441.642 81.0384 441.551C81.1861 441.456 81.2599 441.311 81.2599 441.114V441.08C81.2599 440.652 81.133 440.32 80.8793 440.085C80.6255 439.85 80.2599 439.733 79.7827 439.733C79.2789 439.733 78.8793 439.843 78.5838 440.062C78.2921 440.282 78.0952 440.542 77.9929 440.841L76.0724 440.568C76.224 440.038 76.474 439.595 76.8224 439.239C77.1709 438.879 77.5971 438.61 78.1009 438.432C78.6046 438.25 79.1615 438.159 79.7713 438.159C80.1918 438.159 80.6103 438.208 81.027 438.307C81.4437 438.405 81.8243 438.568 82.169 438.795C82.5137 439.019 82.7902 439.324 82.9986 439.71C83.2107 440.097 83.3168 440.58 83.3168 441.159V447H81.3395V445.801H81.2713C81.1463 446.044 80.9702 446.271 80.7429 446.483C80.5194 446.691 80.2372 446.86 79.8963 446.989C79.5592 447.114 79.1634 447.176 78.7088 447.176ZM79.2429 445.665C79.6558 445.665 80.0137 445.583 80.3168 445.42C80.6198 445.254 80.8527 445.034 81.0156 444.761C81.1823 444.489 81.2656 444.191 81.2656 443.869V442.841C81.2012 442.894 81.0914 442.943 80.9361 442.989C80.7846 443.034 80.6141 443.074 80.4247 443.108C80.2353 443.142 80.0478 443.172 79.8622 443.199C79.6766 443.225 79.5156 443.248 79.3793 443.267C79.0724 443.309 78.7978 443.377 78.5554 443.472C78.313 443.566 78.1217 443.699 77.9815 443.869C77.8414 444.036 77.7713 444.252 77.7713 444.517C77.7713 444.896 77.9096 445.182 78.1861 445.375C78.4626 445.568 78.8149 445.665 79.2429 445.665Z" fill="black"/>
<rect width="414" height="3" fill="#93E6A1"/>
<rect x="56" y="537" width="302" height="38" rx="2" fill="#F9F8F6" stroke="#CBC6BE" stroke-width="2"/>
<path d="M66.108 521.29H63.983C63.9223 520.941 63.8106 520.633 63.6477 520.364C63.4848 520.091 63.2822 519.86 63.0398 519.67C62.7973 519.481 62.5208 519.339 62.2102 519.244C61.9034 519.146 61.572 519.097 61.2159 519.097C60.5833 519.097 60.0227 519.256 59.5341 519.574C59.0455 519.888 58.6629 520.35 58.3864 520.96C58.1098 521.566 57.9716 522.307 57.9716 523.182C57.9716 524.072 58.1098 524.822 58.3864 525.432C58.6667 526.038 59.0492 526.496 59.5341 526.807C60.0227 527.114 60.5814 527.267 61.2102 527.267C61.5587 527.267 61.8845 527.222 62.1875 527.131C62.4943 527.036 62.7689 526.898 63.0114 526.716C63.2576 526.534 63.464 526.311 63.6307 526.045C63.8011 525.78 63.9186 525.477 63.983 525.136L66.108 525.148C66.0284 525.701 65.8561 526.22 65.5909 526.705C65.3295 527.189 64.9867 527.617 64.5625 527.989C64.1383 528.356 63.642 528.644 63.0739 528.852C62.5057 529.057 61.875 529.159 61.1818 529.159C60.1591 529.159 59.2462 528.922 58.4432 528.449C57.6402 527.975 57.0076 527.292 56.5455 526.398C56.0833 525.504 55.8523 524.432 55.8523 523.182C55.8523 521.928 56.0852 520.856 56.5511 519.966C57.017 519.072 57.6515 518.388 58.4545 517.915C59.2576 517.441 60.1667 517.205 61.1818 517.205C61.8295 517.205 62.4318 517.295 62.9886 517.477C63.5455 517.659 64.0417 517.926 64.4773 518.278C64.9129 518.627 65.2708 519.055 65.5511 519.562C65.8352 520.066 66.0208 520.642 66.108 521.29ZM67.9474 529V520.273H70.0043V529H67.9474ZM68.9815 519.034C68.6558 519.034 68.3755 518.926 68.1406 518.71C67.9058 518.491 67.7884 518.227 67.7884 517.92C67.7884 517.61 67.9058 517.347 68.1406 517.131C68.3755 516.911 68.6558 516.801 68.9815 516.801C69.3111 516.801 69.5914 516.911 69.8224 517.131C70.0573 517.347 70.1747 517.61 70.1747 517.92C70.1747 518.227 70.0573 518.491 69.8224 518.71C69.5914 518.926 69.3111 519.034 68.9815 519.034ZM75.358 529.153C74.6723 529.153 74.0587 528.977 73.517 528.625C72.9754 528.273 72.5473 527.761 72.233 527.091C71.9186 526.42 71.7614 525.606 71.7614 524.648C71.7614 523.678 71.9205 522.86 72.2386 522.193C72.5606 521.523 72.9943 521.017 73.5398 520.676C74.0852 520.331 74.6932 520.159 75.3636 520.159C75.875 520.159 76.2955 520.246 76.625 520.42C76.9545 520.591 77.2159 520.797 77.4091 521.04C77.6023 521.278 77.7519 521.504 77.858 521.716H77.9432V517.364H80.0057V529H77.983V527.625H77.858C77.7519 527.837 77.5985 528.062 77.3977 528.301C77.197 528.536 76.9318 528.737 76.6023 528.903C76.2727 529.07 75.858 529.153 75.358 529.153ZM75.9318 527.466C76.3674 527.466 76.7386 527.348 77.0455 527.114C77.3523 526.875 77.5852 526.544 77.7443 526.119C77.9034 525.695 77.983 525.201 77.983 524.636C77.983 524.072 77.9034 523.581 77.7443 523.165C77.589 522.748 77.358 522.424 77.0511 522.193C76.7481 521.962 76.375 521.847 75.9318 521.847C75.4735 521.847 75.0909 521.966 74.7841 522.205C74.4773 522.443 74.2462 522.773 74.0909 523.193C73.9356 523.614 73.858 524.095 73.858 524.636C73.858 525.182 73.9356 525.669 74.0909 526.097C74.25 526.521 74.483 526.856 74.7898 527.102C75.1004 527.345 75.4811 527.466 75.9318 527.466ZM84.7088 529.176C84.1558 529.176 83.6577 529.078 83.2145 528.881C82.7751 528.68 82.4266 528.384 82.169 527.994C81.9152 527.604 81.7884 527.123 81.7884 526.551C81.7884 526.059 81.8793 525.652 82.0611 525.33C82.2429 525.008 82.491 524.75 82.8054 524.557C83.1198 524.364 83.474 524.218 83.8679 524.119C84.2656 524.017 84.6766 523.943 85.1009 523.898C85.6122 523.845 86.027 523.797 86.3452 523.756C86.6634 523.71 86.8944 523.642 87.0384 523.551C87.1861 523.456 87.2599 523.311 87.2599 523.114V523.08C87.2599 522.652 87.133 522.32 86.8793 522.085C86.6255 521.85 86.2599 521.733 85.7827 521.733C85.2789 521.733 84.8793 521.843 84.5838 522.062C84.2921 522.282 84.0952 522.542 83.9929 522.841L82.0724 522.568C82.224 522.038 82.474 521.595 82.8224 521.239C83.1709 520.879 83.5971 520.61 84.1009 520.432C84.6046 520.25 85.1615 520.159 85.7713 520.159C86.1918 520.159 86.6103 520.208 87.027 520.307C87.4437 520.405 87.8243 520.568 88.169 520.795C88.5137 521.019 88.7902 521.324 88.9986 521.71C89.2107 522.097 89.3168 522.58 89.3168 523.159V529H87.3395V527.801H87.2713C87.1463 528.044 86.9702 528.271 86.7429 528.483C86.5194 528.691 86.2372 528.86 85.8963 528.989C85.5592 529.114 85.1634 529.176 84.7088 529.176ZM85.2429 527.665C85.6558 527.665 86.0137 527.583 86.3168 527.42C86.6198 527.254 86.8527 527.034 87.0156 526.761C87.1823 526.489 87.2656 526.191 87.2656 525.869V524.841C87.2012 524.894 87.0914 524.943 86.9361 524.989C86.7846 525.034 86.6141 525.074 86.4247 525.108C86.2353 525.142 86.0478 525.172 85.8622 525.199C85.6766 525.225 85.5156 525.248 85.3793 525.267C85.0724 525.309 84.7978 525.377 84.5554 525.472C84.313 525.566 84.1217 525.699 83.9815 525.869C83.8414 526.036 83.7713 526.252 83.7713 526.517C83.7713 526.896 83.9096 527.182 84.1861 527.375C84.4626 527.568 84.8149 527.665 85.2429 527.665ZM94.6236 529.153C93.938 529.153 93.3243 528.977 92.7827 528.625C92.241 528.273 91.813 527.761 91.4986 527.091C91.1842 526.42 91.027 525.606 91.027 524.648C91.027 523.678 91.1861 522.86 91.5043 522.193C91.8262 521.523 92.2599 521.017 92.8054 520.676C93.3509 520.331 93.9588 520.159 94.6293 520.159C95.1406 520.159 95.5611 520.246 95.8906 520.42C96.2202 520.591 96.4815 520.797 96.6747 521.04C96.8679 521.278 97.0175 521.504 97.1236 521.716H97.2088V517.364H99.2713V529H97.2486V527.625H97.1236C97.0175 527.837 96.8641 528.062 96.6634 528.301C96.4626 528.536 96.1974 528.737 95.8679 528.903C95.5384 529.07 95.1236 529.153 94.6236 529.153ZM95.1974 527.466C95.633 527.466 96.0043 527.348 96.3111 527.114C96.6179 526.875 96.8509 526.544 97.0099 526.119C97.169 525.695 97.2486 525.201 97.2486 524.636C97.2486 524.072 97.169 523.581 97.0099 523.165C96.8546 522.748 96.6236 522.424 96.3168 522.193C96.0137 521.962 95.6406 521.847 95.1974 521.847C94.7391 521.847 94.3565 521.966 94.0497 522.205C93.7429 522.443 93.5118 522.773 93.3565 523.193C93.2012 523.614 93.1236 524.095 93.1236 524.636C93.1236 525.182 93.2012 525.669 93.3565 526.097C93.5156 526.521 93.7486 526.856 94.0554 527.102C94.366 527.345 94.7467 527.466 95.1974 527.466ZM105.327 529.17C104.452 529.17 103.696 528.989 103.06 528.625C102.427 528.258 101.94 527.739 101.599 527.068C101.259 526.394 101.088 525.6 101.088 524.688C101.088 523.79 101.259 523.002 101.599 522.324C101.944 521.642 102.425 521.112 103.043 520.733C103.66 520.35 104.385 520.159 105.219 520.159C105.757 520.159 106.264 520.246 106.741 520.42C107.223 520.591 107.647 520.856 108.014 521.216C108.385 521.576 108.677 522.034 108.889 522.591C109.101 523.144 109.207 523.803 109.207 524.568V525.199H102.054V523.812H107.236C107.232 523.419 107.147 523.068 106.98 522.761C106.813 522.451 106.58 522.206 106.281 522.028C105.986 521.85 105.641 521.761 105.247 521.761C104.827 521.761 104.457 521.864 104.139 522.068C103.821 522.269 103.573 522.534 103.395 522.864C103.221 523.189 103.132 523.547 103.128 523.938V525.148C103.128 525.655 103.221 526.091 103.406 526.455C103.592 526.814 103.851 527.091 104.185 527.284C104.518 527.473 104.908 527.568 105.355 527.568C105.654 527.568 105.925 527.527 106.168 527.443C106.41 527.356 106.62 527.229 106.798 527.062C106.976 526.896 107.111 526.689 107.202 526.443L109.122 526.659C109.001 527.167 108.77 527.61 108.429 527.989C108.092 528.364 107.66 528.655 107.134 528.864C106.607 529.068 106.005 529.17 105.327 529.17Z" fill="black"/>
<path d="M333 553L338.5 558.5L344 553" stroke="#BCB6AA"/>
<rect x="55" y="629" width="180" height="45" rx="2" fill="#9FF9AE"/>
<path d="M105.435 659V644.455H114.753V646.663H108.07V650.612H114.114V652.821H108.07V659H105.435ZM117.04 659V648.091H119.611V659H117.04ZM118.332 646.543C117.925 646.543 117.575 646.408 117.281 646.138C116.988 645.863 116.841 645.534 116.841 645.151C116.841 644.762 116.988 644.433 117.281 644.163C117.575 643.889 117.925 643.751 118.332 643.751C118.744 643.751 119.095 643.889 119.384 644.163C119.677 644.433 119.824 644.762 119.824 645.151C119.824 645.534 119.677 645.863 119.384 646.138C119.095 646.408 118.744 646.543 118.332 646.543ZM124.826 652.608V659H122.255V648.091H124.712V649.945H124.84C125.091 649.334 125.491 648.848 126.04 648.489C126.594 648.129 127.278 647.949 128.093 647.949C128.846 647.949 129.501 648.11 130.06 648.432C130.623 648.754 131.059 649.22 131.367 649.831C131.679 650.442 131.833 651.183 131.828 652.054V659H129.257V652.452C129.257 651.723 129.068 651.152 128.689 650.74C128.315 650.328 127.797 650.122 127.134 650.122C126.684 650.122 126.284 650.222 125.934 650.42C125.588 650.615 125.316 650.896 125.117 651.266C124.923 651.635 124.826 652.082 124.826 652.608ZM137.581 659.22C136.89 659.22 136.267 659.097 135.713 658.851C135.164 658.6 134.729 658.231 134.407 657.743C134.089 657.255 133.931 656.654 133.931 655.939C133.931 655.323 134.044 654.814 134.272 654.412C134.499 654.009 134.809 653.688 135.202 653.446C135.595 653.205 136.038 653.022 136.53 652.899C137.027 652.771 137.541 652.679 138.071 652.622C138.711 652.556 139.229 652.497 139.627 652.445C140.025 652.388 140.313 652.303 140.493 652.189C140.678 652.071 140.77 651.888 140.77 651.642V651.599C140.77 651.064 140.612 650.65 140.294 650.357C139.977 650.063 139.52 649.916 138.924 649.916C138.294 649.916 137.794 650.054 137.425 650.328C137.06 650.603 136.814 650.927 136.686 651.301L134.286 650.96C134.475 650.297 134.788 649.743 135.223 649.298C135.659 648.848 136.192 648.512 136.821 648.29C137.451 648.062 138.147 647.949 138.909 647.949C139.435 647.949 139.958 648.01 140.479 648.134C141 648.257 141.476 648.46 141.907 648.744C142.337 649.024 142.683 649.405 142.944 649.888C143.209 650.371 143.341 650.974 143.341 651.699V659H140.87V657.501H140.784C140.628 657.804 140.408 658.089 140.124 658.354C139.845 658.614 139.492 658.825 139.066 658.986C138.644 659.142 138.15 659.22 137.581 659.22ZM138.249 657.331C138.765 657.331 139.212 657.229 139.591 657.026C139.97 656.817 140.261 656.543 140.465 656.202C140.673 655.861 140.777 655.489 140.777 655.087V653.801C140.697 653.867 140.56 653.929 140.365 653.986C140.176 654.043 139.963 654.092 139.726 654.135C139.489 654.178 139.255 654.215 139.023 654.249C138.791 654.282 138.59 654.31 138.419 654.334C138.036 654.386 137.693 654.471 137.39 654.589C137.087 654.708 136.847 654.874 136.672 655.087C136.497 655.295 136.409 655.565 136.409 655.896C136.409 656.37 136.582 656.727 136.928 656.969C137.274 657.21 137.714 657.331 138.249 657.331ZM148.498 644.455V659H145.926V644.455H148.498ZM151.141 659V648.091H153.712V659H151.141ZM152.434 646.543C152.027 646.543 151.676 646.408 151.383 646.138C151.089 645.863 150.942 645.534 150.942 645.151C150.942 644.762 151.089 644.433 151.383 644.163C151.676 643.889 152.027 643.751 152.434 643.751C152.846 643.751 153.196 643.889 153.485 644.163C153.779 644.433 153.925 644.762 153.925 645.151C153.925 645.534 153.779 645.863 153.485 646.138C153.196 646.408 152.846 646.543 152.434 646.543ZM156.214 659V657.366L161.839 650.314V650.222H156.399V648.091H164.985V649.845L159.63 656.777V656.869H165.17V659H156.214ZM170.726 659.22C170.035 659.22 169.412 659.097 168.858 658.851C168.309 658.6 167.873 658.231 167.551 657.743C167.234 657.255 167.075 656.654 167.075 655.939C167.075 655.323 167.189 654.814 167.416 654.412C167.643 654.009 167.954 653.688 168.347 653.446C168.74 653.205 169.182 653.022 169.675 652.899C170.172 652.771 170.686 652.679 171.216 652.622C171.855 652.556 172.374 652.497 172.771 652.445C173.169 652.388 173.458 652.303 173.638 652.189C173.822 652.071 173.915 651.888 173.915 651.642V651.599C173.915 651.064 173.756 650.65 173.439 650.357C173.122 650.063 172.665 649.916 172.068 649.916C171.438 649.916 170.939 650.054 170.57 650.328C170.205 650.603 169.959 650.927 169.831 651.301L167.43 650.96C167.62 650.297 167.932 649.743 168.368 649.298C168.804 648.848 169.336 648.512 169.966 648.29C170.596 648.062 171.292 647.949 172.054 647.949C172.58 647.949 173.103 648.01 173.624 648.134C174.144 648.257 174.62 648.46 175.051 648.744C175.482 649.024 175.828 649.405 176.088 649.888C176.353 650.371 176.486 650.974 176.486 651.699V659H174.014V657.501H173.929C173.773 657.804 173.553 658.089 173.268 658.354C172.989 658.614 172.636 658.825 172.21 658.986C171.789 659.142 171.294 659.22 170.726 659.22ZM171.393 657.331C171.91 657.331 172.357 657.229 172.736 657.026C173.115 656.817 173.406 656.543 173.609 656.202C173.818 655.861 173.922 655.489 173.922 655.087V653.801C173.841 653.867 173.704 653.929 173.51 653.986C173.321 654.043 173.107 654.092 172.871 654.135C172.634 654.178 172.4 654.215 172.168 654.249C171.936 654.282 171.734 654.31 171.564 654.334C171.18 654.386 170.837 654.471 170.534 654.589C170.231 654.708 169.992 654.874 169.817 655.087C169.642 655.295 169.554 655.565 169.554 655.896C169.554 656.37 169.727 656.727 170.072 656.969C170.418 657.21 170.858 657.331 171.393 657.331ZM179.071 659V648.091H181.564V649.909H181.678C181.876 649.279 182.217 648.794 182.7 648.453C183.188 648.107 183.744 647.935 184.369 647.935C184.511 647.935 184.67 647.942 184.845 647.956C185.025 647.965 185.174 647.982 185.293 648.006V650.371C185.184 650.333 185.011 650.3 184.774 650.271C184.542 650.238 184.317 650.222 184.099 650.222C183.631 650.222 183.209 650.323 182.835 650.527C182.466 650.726 182.175 651.003 181.962 651.358C181.749 651.713 181.642 652.123 181.642 652.587V659H179.071Z" fill="#046D21"/>
<defs>
<filter id="filter0_d_15_2" x="54.7045" y="45.4091" width="146.761" height="31.9432" filterUnits="userSpaceOnUse" color-interpolation-filters="sRGB">
<feFlood flood-opacity="0" result="BackgroundImageFix"/>
<feColorMatrix in="SourceAlpha" type="matrix" values="0 0 0 0 0 0 0 0 0 0 0 0 0 0 0 0 0 0 127 0" result="hardAlpha"/>
<feOffset dy="2"/>
<feGaussianBlur stdDeviation="2"/>
<feComposite in2="hardAlpha" operator="out"/>
<feColorMatrix type="matrix" values="0 0 0 0 0 0 0 0 0 0 0 0 0 0 0 0 0 0 0.25 0"/>
<feBlend mode="normal" in2="BackgroundImageFix" result="effect1_dropShadow_15_2"/>
<feBlend mode="normal" in="SourceGraphic" in2="effect1_dropShadow_15_2" result="shape"/>
</filter>
</defs>
</svg>
